<svg width="16" height="16" viewBox="0 0 16 16" fill="none" xmlns="http://www.w3.org/2000/svg">
    <path
        d="M8.00001 8.66602C8.3682 8.66602 8.66668 8.36754 8.66668 7.99935C8.66668 7.63116 8.3682 7.33268 8.00001 7.33268C7.63182 7.33268 7.33334 7.63116 7.33334 7.99935C7.33334 8.36754 7.63182 8.66602 8.00001 8.66602Z"
        stroke="#1E293B" stroke-linecap="round" stroke-linejoin="round" />
    <path
        d="M8.00001 3.99935C8.3682 3.99935 8.66668 3.70087 8.66668 3.33268C8.66668 2.96449 8.3682 2.66602 8.00001 2.66602C7.63182 2.66602 7.33334 2.96449 7.33334 3.33268C7.33334 3.70087 7.63182 3.99935 8.00001 3.99935Z"
        stroke="#1E293B" stroke-linecap="round" stroke-linejoin="round" />
    <path
        d="M8.00001 13.3327C8.3682 13.3327 8.66668 13.0342 8.66668 12.666C8.66668 12.2978 8.3682 11.9993 8.00001 11.9993C7.63182 11.9993 7.33334 12.2978 7.33334 12.666C7.33334 13.0342 7.63182 13.3327 8.00001 13.3327Z"
        stroke="#1E293B" stroke-linecap="round" stroke-linejoin="round" />
</svg>